HIERARCHY
ROOT Hips
{
	OFFSET 0.000000 88.474243 0.000000
	CHANNELS 6 Xposition Yposition Zposition Zrotation Yrotation Xrotation 
	JOINT Hips_Spine
	{
		OFFSET 0.000000 0.000000 0.000000
		CHANNELS 3 Zrotation Yrotation Xrotation
		JOINT Spine
		{
			OFFSET 0.005100 8.711998 -0.691000
			CHANNELS 3 Zrotation Yrotation Xrotation
			JOINT Spine1
			{
				OFFSET -0.009200 8.660301 -1.275000
				CHANNELS 3 Zrotation Yrotation Xrotation
				JOINT Spine2
				{
					OFFSET 0.006300 9.852501 -1.857000
					CHANNELS 3 Zrotation Yrotation Xrotation
					JOINT Spine2_Neck
					{
						OFFSET 0.000000 0.000000 0.000000
						CHANNELS 3 Zrotation Yrotation Xrotation
						JOINT Neck
						{
							OFFSET 0.016300 11.420799 -0.263300
							CHANNELS 3 Zrotation Yrotation Xrotation
							End Site #name: Head
							{
								OFFSET -0.019200 9.262405 2.362500
							}
						}
					}
					JOINT Spine2_LeftShoulder
					{
						OFFSET 0.000000 0.000000 0.000000
						CHANNELS 3 Zrotation Yrotation Xrotation
						JOINT LeftShoulder
						{
							OFFSET 5.616900 6.732201 -0.345700
							CHANNELS 3 Zrotation Yrotation Xrotation
							JOINT LeftArm
							{
								OFFSET 10.664888 -0.183372 -2.440700
								CHANNELS 3 Zrotation Yrotation Xrotation
								JOINT LeftForeArm
								{
									OFFSET 27.459126 0.000000 0.000000
									CHANNELS 3 Zrotation Yrotation Xrotation
									End Site #name: LeftHand
									{
										OFFSET 21.306858 0.000000 0.000000
									}
								}
							}
						}
					}
					JOINT Spine2_RightShoulder
					{
						OFFSET 0.000000 0.000000 0.000000
						CHANNELS 3 Zrotation Yrotation Xrotation
						JOINT RightShoulder
						{
							OFFSET -5.580300 6.737503 -0.344400
							CHANNELS 3 Zrotation Yrotation Xrotation
							JOINT RightArm
							{
								OFFSET -10.679335 -0.188484 -2.383900
								CHANNELS 3 Zrotation Yrotation Xrotation
								JOINT RightForeArm
								{
									OFFSET -27.503529 0.000000 0.000000
									CHANNELS 3 Zrotation Yrotation Xrotation
									End Site #name: RightHand
									{
										OFFSET -21.306808 0.000000 0.000000
									}
								}
							}
						}
					}
				}
			}
		}
	}
	JOINT Hips_LeftUpLeg
	{
		OFFSET 0.000000 0.000000 0.000000
		CHANNELS 3 Zrotation Yrotation Xrotation
		JOINT LeftUpLeg
		{
			OFFSET 6.857700 -6.739601 0.312100
			CHANNELS 3 Zrotation Yrotation Xrotation
			JOINT LeftLeg
			{
				OFFSET -0.367590 -34.731552 -4.572400
				CHANNELS 3 Zrotation Yrotation Xrotation
				End Site #name: LeftFoot
				{
					OFFSET 0.367590 -34.656704 -6.067400
				}
			}
		}
	}
	JOINT Hips_RightUpLeg
	{
		OFFSET 0.000000 0.000000 0.000000
		CHANNELS 3 Zrotation Yrotation Xrotation
		JOINT RightUpLeg
		{
			OFFSET -6.876100 -6.733299 0.301000
			CHANNELS 3 Zrotation Yrotation Xrotation
			JOINT RightLeg
			{
				OFFSET 0.347353 -34.795158 -4.515900
				CHANNELS 3 Zrotation Yrotation Xrotation
				End Site #name: RightFoot
				{
					OFFSET -0.347353 -34.589367 -6.070300
				}
			}
		}
	}
}
MOTION
Frames: 6
Frame Time: 0.041667
-0.060296 0.057782 0.003584 -3.732308 1.086497 -3.065833 -0.000000 0.000000 0.000000 -0.726671 0.851186 5.708156 -1.572193 1.335516 9.959126 0.000000 0.000000 0.000000 -1.900382 1.229161 9.413232 -0.971620 -3.650407 3.951941 -1.924461 1.160417 10.142891 -1.017052 -1.011553 0.281452 -68.709137 -25.061396 19.329703 169.429242 -86.031714 -169.721990 -1.774883 1.738572 10.802534 -4.975882 -0.631025 1.354999 77.405284 -3.993591 4.917259 174.672956 83.360344 176.550750 0.000000 -0.000000 0.000000 7.023679 1.282549 -19.106562 -1.370541 0.385912 33.252756 -0.000000 0.000000 -0.000000 -4.099325 -2.493705 -15.166337 -0.272455 -2.149392 26.915613 
0.041267 0.079249 0.147796 -4.808875 -2.986473 -2.390231 -0.000000 0.000000 0.000000 -0.771971 0.426091 5.569037 -2.009041 1.399059 10.332507 0.000000 0.000000 0.000000 -1.822989 1.339070 10.276440 -1.911504 -4.026401 5.394622 -1.987316 1.468874 10.683931 0.476579 1.101473 -0.203188 -68.600587 -23.733705 30.420361 178.971804 -82.770179 -179.078495 -1.885419 1.186528 10.243918 -5.525954 -2.509761 0.661972 83.318307 -7.481475 5.095985 -171.339775 87.244476 -171.486010 0.000000 -0.000000 0.000000 7.135505 0.081856 -22.642193 -0.712038 0.858863 32.559697 0.000000 0.000000 -0.000000 -3.133002 -3.582181 -16.271741 1.051829 -0.613441 26.404013 
0.215604 0.084162 0.172881 -4.654485 -5.998191 -2.501650 -0.000000 -0.000000 0.000000 -0.747960 0.444552 5.332194 -2.167608 1.371194 10.307352 0.000000 0.000000 0.000000 -2.130176 1.564911 10.980427 -1.787412 -3.576172 4.713808 -1.848024 1.580980 10.493042 0.697477 0.557032 -0.142416 -70.158886 -19.001952 32.552669 -178.318057 -81.893276 178.189969 -2.043943 1.393080 10.252975 -4.299662 -1.993805 0.796159 82.180170 -8.294944 8.003584 -169.943160 86.941672 -170.221928 0.000000 -0.000000 0.000000 7.542767 0.929348 -23.028016 -0.809861 0.547092 34.067833 0.000000 0.000000 -0.000000 -2.777652 -3.572585 -16.744463 0.690706 -0.960409 25.628414 
0.334975 0.052736 0.170869 -4.436630 -7.075945 -2.529536 -0.000000 -0.000000 -0.000000 -0.617429 0.575556 5.050426 -2.070339 1.537539 10.254024 0.000000 0.000000 0.000000 -1.978029 1.653821 10.466139 -1.890925 -3.768848 5.117255 -1.897435 1.637567 10.408143 1.486451 0.345838 0.046343 -70.831773 -18.274619 32.275566 -177.947057 -82.563132 177.866664 -2.094534 1.559724 10.142208 -4.186956 -1.177912 1.198376 80.444062 -7.316026 9.418888 -170.620755 85.184619 -171.133693 0.000000 -0.000000 0.000000 7.362114 1.192555 -23.298620 -1.013068 0.574260 34.718186 0.000000 0.000000 0.000000 -2.235108 -3.223645 -17.349750 0.557657 -0.673974 26.070957 
0.418541 0.041549 0.223957 -4.528498 -6.712982 -2.565231 -0.000000 -0.000000 0.000000 -0.557666 0.677452 5.079106 -1.981577 1.562847 10.025462 0.000000 0.000000 0.000000 -1.914077 1.620731 10.019655 -1.743891 -3.905864 5.207433 -1.949301 1.620149 10.173686 1.694744 0.246756 0.196345 -71.214364 -18.814164 31.265454 -176.364277 -83.908821 176.576259 -2.081138 1.589420 10.105767 -4.193410 -1.724443 1.368369 79.810474 -8.184791 8.424441 -167.530615 85.234968 -168.150606 0.000000 -0.000000 0.000000 6.876130 1.230006 -22.749637 -1.174799 0.621815 34.311348 -0.000000 0.000000 0.000000 -2.238029 -3.142212 -17.529022 0.532967 -0.519879 26.033599 
0.519508 0.037143 0.297979 -4.682430 -5.949657 -2.705402 -0.000000 -0.000000 0.000000 -0.536724 0.748873 5.099411 -1.880108 1.496172 9.771364 0.000000 0.000000 0.000000 -1.865855 1.523443 9.801641 -1.520099 -3.754189 5.133123 -1.933055 1.542208 9.902552 1.711458 0.366587 0.237194 -71.467882 -19.238789 30.098073 -174.687724 -84.268841 175.053036 -2.051742 1.554687 10.078925 -4.616838 -2.187274 1.338935 80.320557 -8.884506 7.048771 -167.572005 85.232584 -168.156577 0.000000 -0.000000 0.000000 6.500669 1.231676 -22.209743 -1.206270 0.717908 33.887948 -0.000000 -0.000000 0.000000 -2.613604 -3.210568 -17.199504 0.429557 -0.672862 25.580317 
